<svg width="21" height="19" viewBox="0 0 21 19" fill="none" xmlns="http://www.w3.org/2000/svg">
<path d="M4.50159 0.0638123C4.68913 0.0109596 4.90284 0.117339 4.95667 0.330414L5.54553 2.52963L10.1793 1.31479L10.2574 1.30209C10.4385 1.29017 10.6093 1.3934 10.6569 1.58237L11.6393 5.21811L15.2311 4.25815L15.3092 4.24545C15.49 4.23349 15.6608 4.3362 15.7086 4.52475L17.5494 11.3597L19.194 10.932L19.2721 10.9193C19.4531 10.9073 19.6239 11.0106 19.6715 11.1996L20.1119 12.8216L20.1373 12.9398C20.2339 13.53 19.8817 14.1329 19.2877 14.2484L19.2887 14.2494L13.3473 15.8148C13.4212 16.9815 12.6705 18.0694 11.5016 18.3734L11.5026 18.3744C10.3338 18.7015 9.11982 18.1277 8.61194 17.0863L7.63245 17.3548H7.63147C7.42418 17.4066 7.20856 17.3038 7.15393 17.0882L3.15784 2.37338L1.25842 2.84799C0.769286 2.9702 0.233077 2.67743 0.0865479 2.1644C-0.0606809 1.64879 0.258686 1.13648 0.769165 0.99057L0.771118 0.989594L4.50159 0.0628357V0.0638123ZM12.5299 15.6712C12.3501 14.7722 11.3817 14.1187 10.3903 14.389H10.3893C9.44403 14.6368 8.90421 15.6042 9.1969 16.5501C9.46665 17.427 10.3884 17.9234 11.2897 17.6761L11.4479 17.6224C12.2183 17.3226 12.7195 16.5359 12.5299 15.6722V15.6712ZM0.957642 1.71323C0.840718 1.75053 0.802005 1.86313 0.828735 1.96518C0.842123 2.01581 0.871055 2.05919 0.910767 2.0853C0.949404 2.1107 1.00193 2.1222 1.06995 2.10287H1.0719L3.34338 1.54623L3.3551 1.5433V1.54526H3.42444C3.56825 1.54526 3.70528 1.64722 3.77209 1.7767L3.79651 1.83432L3.79749 1.83627V1.83725L7.79358 16.5287L8.37366 16.3871C8.27923 15.7193 8.45788 14.9984 8.90979 14.4535L8.44299 14.5746H8.44202C8.23457 14.6262 8.01876 14.5229 7.96448 14.307L4.31604 0.867523L0.957642 1.71323ZM11.7321 13.7201C12.3796 13.9592 12.9146 14.4762 13.1637 15.1146L19.0778 13.5511C19.2763 13.4968 19.3963 13.3163 19.3815 13.1185L19.3668 13.0326L19.0319 11.7826C16.7547 12.3912 13.962 13.1286 11.7321 13.7201ZM6.84631 7.28452L8.60413 13.7455L16.8268 11.5706L15.069 5.10776L6.84631 7.28452ZM5.75647 3.27475L6.6344 6.53842L10.8942 5.40659L10.0172 2.14194L5.75647 3.27475Z" fill="#5D6679" stroke="#C7A34D" stroke-width="0.1"/>
</svg>
