<svg width="17" height="21" viewBox="0 0 17 21" fill="none" xmlns="http://www.w3.org/2000/svg">
<path d="M8.66541 0.0501709C8.87152 0.05034 9.03733 0.219738 9.03748 0.427124C9.03748 0.634634 8.87161 0.804885 8.66541 0.805054H1.1947C0.975374 0.805054 0.795288 0.98724 0.795288 1.21326V19.2865C0.795288 19.5127 0.975194 19.6957 1.1947 19.6957H8.71521V19.7006C8.89768 19.7255 9.03739 19.8823 9.03748 20.0726C9.03748 20.2801 8.87161 20.4504 8.66541 20.4506H1.1947C0.5627 20.4506 0.0501709 19.927 0.0501709 19.2865V1.21326C0.0501709 0.572717 0.5627 0.0501709 1.1947 0.0501709H8.66541ZM11.3324 5.49158C11.4782 5.34391 11.7151 5.34478 11.8607 5.49255L16.2855 9.98376L16.3002 9.99841V10.0013C16.3602 10.0702 16.3941 10.158 16.3939 10.2504C16.3939 10.3503 16.355 10.4464 16.2855 10.517L11.8597 15.0082C11.7872 15.082 11.6918 15.1195 11.5961 15.1195C11.5004 15.1194 11.405 15.0819 11.3324 15.0082C11.1876 14.8607 11.1874 14.6223 11.3324 14.475L15.1234 10.6273H4.71228C4.50609 10.6272 4.34035 10.4578 4.34021 10.2504C4.34021 10.0428 4.506 9.87252 4.71228 9.87244H15.1234L11.3324 6.02576C11.1872 5.87843 11.187 5.63898 11.3324 5.49158Z" fill="#5D6679" stroke="#C7A34D" stroke-width="0.1"/>
</svg>
