<svg  width="20" height="20" viewBox="0 0 20 20" fill="none" xmlns="http://www.w3.org/2000/svg">
<path d="M7.75 18.8419H2.75C1.64543 18.8419 0.75 17.9465 0.75 16.8419V10.1389C0.75 9.62716 0.946154 9.1349 1.29809 8.76341L8.29809 1.37452C9.08695 0.541836 10.413 0.541835 11.2019 1.37452L18.2019 8.7634C18.5538 9.1349 18.75 9.62716 18.75 10.1389V16.8419C18.75 17.9465 17.8546 18.8419 16.75 18.8419H11.75M7.75 18.8419V13.3419C7.75 13.0658 7.97386 12.8419 8.25 12.8419H11.25C11.5261 12.8419 11.75 13.0658 11.75 13.3419V18.8419M7.75 18.8419H11.75" stroke="#C7A34D" stroke-width="1.5"/>
</svg>
