<svg width="21" height="20" viewBox="0 0 21 20" fill="none" xmlns="http://www.w3.org/2000/svg">
<path d="M13.2859 0.100433C13.3071 0.100433 13.347 0.0995198 13.3845 0.110199C13.4195 0.120164 13.4532 0.140511 13.4792 0.174652L20.1248 4.11215C20.2375 4.15824 20.2995 4.27183 20.2996 4.39731V18.7186C20.2995 18.8152 20.2671 18.9032 20.2029 18.9676C20.1384 19.0321 20.0496 19.0653 19.9529 19.0653H5.63257C5.58384 19.0653 5.53841 19.0568 5.49585 19.0379C5.45376 19.0192 5.41901 18.9923 5.38843 18.9618L5.38647 18.9598L0.202881 13.5291C0.172493 13.4987 0.145277 13.4645 0.126709 13.4227C0.107838 13.3802 0.100342 13.3346 0.100342 13.286V0.447113C0.100342 0.350263 0.132533 0.261598 0.197021 0.197113C0.261536 0.132631 0.350257 0.100433 0.447021 0.100433H13.2859ZM5.97925 18.3709H19.6062V4.74399H14.6208V8.3475C14.6208 8.44421 14.5885 8.53304 14.5242 8.5975C14.4597 8.66197 14.3709 8.69514 14.2742 8.69516H11.0642C10.9673 8.69516 10.8787 8.66203 10.8142 8.5975C10.7499 8.53301 10.7175 8.44417 10.7175 8.3475V4.74399H5.97925V18.3709ZM0.793701 13.1463L5.28491 17.8504V4.56918L0.793701 1.14243V13.1463ZM11.4109 8.00082H13.9275V4.74399H11.4109V8.00082ZM14.6257 4.05063H18.6755L13.1843 0.793793H9.74097L14.6257 4.05063ZM11.1687 4.05063H13.3767L8.49097 0.793793H6.28296L11.1687 4.05063ZM5.74097 4.05063H9.91968L5.03394 0.793793H1.48315L5.74097 4.05063Z" fill="#5D6679" stroke="#5D6679" stroke-width="0.2"/>
</svg>
