<svg width="20" height="20" viewBox="0 0 20 20" fill="none" xmlns="http://www.w3.org/2000/svg">
<path d="M9.76664 12.2666C11.1474 12.2666 12.2666 11.1474 12.2666 9.76664C12.2666 8.38593 11.1474 7.26664 9.76664 7.26664C8.38593 7.26664 7.26664 8.38593 7.26664 9.76664C7.26664 11.1474 8.38593 12.2666 9.76664 12.2666Z" stroke="#777777" stroke-width="1.2" stroke-linecap="round" stroke-linejoin="round"/>
<path d="M15.9333 12.2666C15.8224 12.518 15.7893 12.7968 15.8383 13.0671C15.8873 13.3375 16.0162 13.5869 16.2083 13.7833L16.2583 13.8333C16.4133 13.9881 16.5362 14.1719 16.6201 14.3742C16.7039 14.5766 16.7471 14.7934 16.7471 15.0125C16.7471 15.2315 16.7039 15.4484 16.6201 15.6507C16.5362 15.853 16.4133 16.0369 16.2583 16.1916C16.1035 16.3466 15.9197 16.4695 15.7174 16.5534C15.515 16.6373 15.2982 16.6805 15.0791 16.6805C14.8601 16.6805 14.6432 16.6373 14.4409 16.5534C14.2386 16.4695 14.0548 16.3466 13.9 16.1916L13.85 16.1416C13.6536 15.9495 13.4041 15.8207 13.1338 15.7716C12.8635 15.7226 12.5847 15.7557 12.3333 15.8666C12.0868 15.9723 11.8766 16.1477 11.7286 16.3713C11.5805 16.5948 11.501 16.8568 11.5 17.125V17.2666C11.5 17.7087 11.3244 18.1326 11.0118 18.4452C10.6993 18.7577 10.2753 18.9333 9.83331 18.9333C9.39128 18.9333 8.96736 18.7577 8.6548 18.4452C8.34224 18.1326 8.16664 17.7087 8.16664 17.2666V17.1916C8.16019 16.9158 8.07091 16.6483 7.9104 16.4239C7.74989 16.1995 7.52559 16.0285 7.26664 15.9333C7.01529 15.8224 6.73648 15.7893 6.46615 15.8383C6.19582 15.8873 5.94637 16.0162 5.74997 16.2083L5.69998 16.2583C5.54519 16.4133 5.36137 16.5362 5.15904 16.6201C4.95671 16.7039 4.73983 16.7471 4.52081 16.7471C4.30178 16.7471 4.0849 16.7039 3.88257 16.6201C3.68024 16.5362 3.49643 16.4133 3.34164 16.2583C3.18668 16.1035 3.06375 15.9197 2.97988 15.7174C2.896 15.515 2.85283 15.2982 2.85283 15.0791C2.85283 14.8601 2.896 14.6432 2.97988 14.4409C3.06375 14.2386 3.18668 14.0548 3.34164 13.9L3.39164 13.85C3.58376 13.6536 3.71263 13.4041 3.76165 13.1338C3.81066 12.8635 3.77757 12.5847 3.66664 12.3333C3.56101 12.0868 3.3856 11.8766 3.16203 11.7286C2.93845 11.5805 2.67646 11.501 2.40831 11.5H2.26664C1.82461 11.5 1.40069 11.3244 1.08813 11.0118C0.77557 10.6993 0.599976 10.2753 0.599976 9.83331C0.599976 9.39128 0.77557 8.96736 1.08813 8.6548C1.40069 8.34224 1.82461 8.16664 2.26664 8.16664H2.34164C2.61747 8.16019 2.88498 8.07091 3.10939 7.9104C3.3338 7.74989 3.50474 7.52559 3.59998 7.26664C3.7109 7.01529 3.74399 6.73648 3.69498 6.46615C3.64596 6.19582 3.51709 5.94637 3.32498 5.74997L3.27498 5.69998C3.12001 5.54519 2.99708 5.36137 2.91321 5.15904C2.82934 4.95671 2.78616 4.73983 2.78616 4.52081C2.78616 4.30178 2.82934 4.0849 2.91321 3.88257C2.99708 3.68024 3.12001 3.49643 3.27498 3.34164C3.42976 3.18668 3.61358 3.06375 3.81591 2.97988C4.01824 2.896 4.23512 2.85283 4.45414 2.85283C4.67317 2.85283 4.89005 2.896 5.09238 2.97988C5.29471 3.06375 5.47852 3.18668 5.63331 3.34164L5.68331 3.39164C5.87971 3.58376 6.12916 3.71263 6.39948 3.76165C6.66981 3.81066 6.94863 3.77757 7.19998 3.66664H7.26664C7.51312 3.56101 7.72332 3.3856 7.87139 3.16203C8.01945 2.93845 8.09891 2.67646 8.09997 2.40831V2.26664C8.09997 1.82461 8.27557 1.40069 8.58813 1.08813C8.90069 0.77557 9.32461 0.599976 9.76664 0.599976C10.2087 0.599976 10.6326 0.77557 10.9452 1.08813C11.2577 1.40069 11.4333 1.82461 11.4333 2.26664V2.34164C11.4344 2.6098 11.5138 2.87179 11.6619 3.09536C11.81 3.31894 12.0202 3.49434 12.2666 3.59998C12.518 3.7109 12.7968 3.74399 13.0671 3.69498C13.3375 3.64596 13.5869 3.51709 13.7833 3.32498L13.8333 3.27498C13.9881 3.12001 14.1719 2.99708 14.3742 2.91321C14.5766 2.82934 14.7934 2.78616 15.0125 2.78616C15.2315 2.78616 15.4484 2.82934 15.6507 2.91321C15.853 2.99708 16.0369 3.12001 16.1916 3.27498C16.3466 3.42976 16.4695 3.61358 16.5534 3.81591C16.6373 4.01824 16.6805 4.23512 16.6805 4.45414C16.6805 4.67317 16.6373 4.89005 16.5534 5.09238C16.4695 5.29471 16.3466 5.47852 16.1916 5.63331L16.1416 5.68331C15.9495 5.87971 15.8207 6.12916 15.7716 6.39948C15.7226 6.66981 15.7557 6.94863 15.8666 7.19998V7.26664C15.9723 7.51312 16.1477 7.72332 16.3713 7.87139C16.5948 8.01945 16.8568 8.09891 17.125 8.09997H17.2666C17.7087 8.09997 18.1326 8.27557 18.4452 8.58813C18.7577 8.90069 18.9333 9.32461 18.9333 9.76664C18.9333 10.2087 18.7577 10.6326 18.4452 10.9452C18.1326 11.2577 17.7087 11.4333 17.2666 11.4333H17.1916C16.9235 11.4344 16.6615 11.5138 16.4379 11.6619C16.2143 11.81 16.0389 12.0202 15.9333 12.2666Z" stroke="#777777" stroke-width="1.2" stroke-linecap="round" stroke-linejoin="round"/>
</svg>
