<svg width="17" height="20" viewBox="0 0 17 20" fill="none" xmlns="http://www.w3.org/2000/svg">
<path d="M6.83793 15.7059H5.46385C5.37229 15.7059 5.31116 15.767 5.31116 15.8586C5.31116 15.9501 5.37229 16.0113 5.46385 16.0113H6.83793C6.92949 16.0113 6.99062 15.9501 6.99062 15.8586C6.99062 15.7821 6.91435 15.7059 6.83793 15.7059Z" fill="#5D6679"/>
<path d="M15.4923 0.697487C15.0425 0.247713 14.4449 0.000278326 13.8084 0.000278326L2.38109 0C1.74456 0 1.1473 0.247435 0.697209 0.697209C0.247435 1.14698 0 1.74453 0 2.38109V17.6189C0 18.2554 0.247435 18.8527 0.697209 19.3028C1.14698 19.7526 1.74453 20 2.38109 20H13.8098C14.4463 20 15.0436 19.7526 15.4937 19.3028C15.9435 18.853 16.1909 18.2555 16.1909 17.6189V2.38109C16.1898 1.74484 15.9424 1.1473 15.4926 0.697494L15.4923 0.697487ZM15.2379 17.6197C15.2379 18.4077 14.5975 19.0481 13.8095 19.0481H2.38079C1.59282 19.0481 0.952411 18.4076 0.952411 17.6197V2.38116C0.952411 1.59319 1.59284 0.95278 2.38079 0.95278H13.8095C14.5975 0.95278 15.2379 1.59321 15.2379 2.38116V17.6197Z" fill="#5D6679"/>
<path d="M5.8534 8.71112L4.2853 10.2795L3.66992 9.66412C3.48428 9.47848 3.18202 9.47848 2.99666 9.66412C2.81101 9.84977 2.81101 10.152 2.99666 10.3374L3.94936 11.2901C4.03926 11.38 4.15977 11.4298 4.28641 11.4298C4.41305 11.4298 4.53385 11.38 4.62347 11.2901L6.52859 9.38497C6.71423 9.19933 6.71423 8.89707 6.52859 8.71171C6.34294 8.52578 6.03873 8.52467 5.85336 8.71115L5.8534 8.71112Z" fill="#5D6679"/>
<path d="M5.8534 13.4721L4.2853 15.0402L3.66992 14.4248C3.48428 14.2392 3.18202 14.2392 2.99666 14.4248C2.81101 14.6105 2.81101 14.9127 2.99666 15.0981L3.94936 16.0508C4.03926 16.1407 4.15977 16.1905 4.28641 16.1905C4.41305 16.1905 4.53385 16.1407 4.62347 16.0508L6.52859 14.1457C6.71423 13.96 6.71423 13.6578 6.52859 13.4724C6.34294 13.2865 6.03873 13.2865 5.85336 13.4721L5.8534 13.4721Z" fill="#5D6679"/>
<path d="M5.8534 3.94866L4.2853 5.51676L3.66992 4.90138C3.48428 4.71573 3.18202 4.71573 2.99666 4.90138C2.81101 5.08702 2.81101 5.38929 2.99666 5.57465L3.94936 6.52735C4.03926 6.61725 4.15977 6.66707 4.28641 6.66707C4.41305 6.66707 4.53385 6.61725 4.62347 6.52735L6.52859 4.62223C6.71423 4.43658 6.71423 4.13432 6.52859 3.94896C6.34294 3.76332 6.03873 3.76332 5.85336 3.94868L5.8534 3.94866Z" fill="#5D6679"/>
<path d="M12.8574 9.52411H8.0952C7.8319 9.52411 7.61926 9.73758 7.61926 10C7.61926 10.2625 7.83274 10.476 8.0952 10.476H12.8574C13.1207 10.476 13.3333 10.2625 13.3333 10C13.3333 9.73675 13.1198 9.52411 12.8574 9.52411Z" fill="#5D6679"/>
<path d="M12.8574 15.2385H8.0952C7.8319 15.2385 7.61926 15.4519 7.61926 15.7144C7.61926 15.9769 7.83274 16.1903 8.0952 16.1903H12.8574C13.1207 16.1903 13.3333 15.9769 13.3333 15.7144C13.3333 15.4519 13.1198 15.2385 12.8574 15.2385Z" fill="#5D6679"/>
<path d="M12.8574 4.76166H8.0952C7.8319 4.76166 7.61926 4.97513 7.61926 5.2376C7.61926 5.50006 7.83274 5.71353 8.0952 5.71353H12.8574C13.1207 5.71353 13.3333 5.50006 13.3333 5.2376C13.3333 4.97513 13.1198 4.76166 12.8574 4.76166Z" fill="#5D6679"/>
<path d="M6.83793 16.7744H5.46385C5.37229 16.7744 5.31116 16.8355 5.31116 16.927C5.31116 17.0186 5.37229 17.0797 5.46385 17.0797H6.83793C6.92949 17.0797 6.99062 17.0186 6.99062 16.927C6.99062 16.8355 6.91435 16.7744 6.83793 16.7744Z" fill="#5D6679"/>
</svg>
